<svg width="13" height="12" viewBox="0 0 13 12" fill="none" xmlns="http://www.w3.org/2000/svg">
<path d="M12.0573 0.40625H0.554164C0.171351 0.40625 -0.0677111 0.823438 0.124476 1.15625L3.75885 7.49063V11.0938C3.75885 11.3703 3.98073 11.5938 4.25573 11.5938H8.35573C8.63073 11.5938 8.8526 11.3703 8.8526 11.0938V7.49063L12.4885 1.15625C12.6792 0.823438 12.4401 0.40625 12.0573 0.40625ZM7.73385 10.4688H4.8776V8.15625H7.73541V10.4688H7.73385ZM7.88385 6.92813L7.7526 7.15625H4.85729L4.72604 6.92813L3.53073 4.84375H9.08073L7.88385 6.92813ZM9.65416 3.84375H2.95729L1.62916 1.53125H10.9823L9.65416 3.84375Z" fill="#262626"/>
</svg>
