<svg width="20" height="16" viewBox="0 0 20 16" fill="none" xmlns="http://www.w3.org/2000/svg">
<path d="M16.9313 1.41224C15.6553 0.814583 14.2881 0.371875 12.8601 0.119531C12.8341 0.115103 12.808 0.128385 12.795 0.15052C12.6171 0.473698 12.4217 0.889843 12.2872 1.21745C10.7507 0.982813 9.22296 0.982813 7.71689 1.21745C7.578 0.88099 7.37835 0.473698 7.20039 0.15052C7.18737 0.128385 7.16133 0.115103 7.13529 0.119531C5.70734 0.371875 4.34015 0.814583 3.06411 1.41224C3.05109 1.41667 3.04241 1.42552 3.03807 1.43437C0.442582 5.40547 -0.264884 9.27474 0.0823384 13.0953C0.0823384 13.113 0.0953592 13.1307 0.10838 13.144C1.81845 14.4279 3.47644 15.2115 5.10404 15.7294C5.13008 15.7383 5.15612 15.725 5.17348 15.7029C5.55543 15.1672 5.89831 14.6005 6.19345 14.0029C6.21081 13.9674 6.19345 13.9276 6.15873 13.9143C5.61619 13.7018 5.0997 13.4451 4.60057 13.1529C4.56151 13.1263 4.55716 13.0687 4.59189 13.0422C4.69605 12.9625 4.80456 12.8784 4.90439 12.7943C4.92175 12.7766 4.94779 12.7766 4.96949 12.7854C8.24206 14.3128 11.7837 14.3128 15.0172 12.7854C15.0389 12.7721 15.065 12.7766 15.0823 12.7943C15.1865 12.8784 15.2907 12.9625 15.3948 13.0422C15.4296 13.0687 15.4296 13.1263 15.3905 13.1529C14.8914 13.4495 14.3749 13.7018 13.828 13.9099C13.7933 13.9232 13.7759 13.9674 13.7933 14.0029C14.0971 14.6005 14.44 15.1672 14.8176 15.7029C14.8306 15.725 14.861 15.7383 14.887 15.7294C16.519 15.2115 18.177 14.4279 19.887 13.144C19.9044 13.1307 19.9131 13.113 19.9131 13.0953C20.3297 8.67708 19.2143 4.8388 16.9573 1.4388C16.953 1.42552 16.94 1.41667 16.9313 1.41224ZM6.6839 10.7667C5.69866 10.7667 4.88703 9.84141 4.88703 8.70365C4.88703 7.56589 5.6813 6.64062 6.6839 6.64062C7.69085 6.64062 8.49814 7.57474 8.48078 8.70365C8.48078 9.84141 7.68651 10.7667 6.6839 10.7667ZM13.3289 10.7667C12.3436 10.7667 11.532 9.84141 11.532 8.70365C11.532 7.56589 12.3263 6.64062 13.3289 6.64062C14.3358 6.64062 15.1431 7.57474 15.1257 8.70365C15.1257 9.84141 14.3358 10.7667 13.3289 10.7667Z" fill="white"/>
</svg>
