<svg width="18" height="15" viewBox="0 0 18 15" fill="none" xmlns="http://www.w3.org/2000/svg">
<path d="M2.13281 3.16406C2.15625 2.94531 2.07031 2.72656 1.90625 2.57812L0.226562 0.550781V0.25H5.44531L9.48047 9.09766L13.0234 0.25H18V0.550781L16.5625 1.92969C16.4375 2.02344 16.3789 2.17969 16.4023 2.33203V12.457C16.3789 12.6094 16.4375 12.7656 16.5625 12.8594L17.9648 14.2383V14.5391H10.9062V14.2383L12.3633 12.8242C12.5039 12.6836 12.5039 12.6406 12.5039 12.4219V4.24219L8.46094 14.5078H7.91797L3.21094 4.24219V11.1211C3.17188 11.4102 3.26562 11.7031 3.46875 11.9102L5.35938 14.2031V14.5078H0V14.2031L1.89062 11.9102C2.09375 11.6992 2.18359 11.4062 2.13281 11.1211V3.16406Z" fill="white"/>
</svg>
