<svg width="20" height="17" viewBox="0 0 20 17" fill="none" xmlns="http://www.w3.org/2000/svg">
<path d="M6.28791 17C13.8324 17 17.9624 10.4652 17.9624 4.80193C17.9624 4.6206 17.9624 4.43927 17.9512 4.2466C18.7584 3.63778 19.4523 2.88665 20.0001 2.02867C19.2635 2.36867 18.4712 2.59533 17.6368 2.70867C18.5001 2.16179 19.1427 1.3174 19.4479 0.328667C18.6557 0.827333 17.7779 1.17867 16.8346 1.37133C16.4594 0.940303 15.999 0.595238 15.4836 0.358869C14.9683 0.122499 14.4097 0.000190938 13.8446 0C11.5768 0 9.73347 1.92553 9.73347 4.29193C9.73347 4.63193 9.7768 4.94927 9.84236 5.2666C6.43791 5.0966 3.41347 3.37507 1.3868 0.782C1.02182 1.44174 0.831151 2.18688 0.833468 2.9444C0.833468 4.42907 1.56013 5.7426 2.65569 6.51213C2.00449 6.48962 1.36827 6.30688 0.801246 5.97947V6.03613C0.801246 8.11013 2.22125 9.8532 4.08569 10.2385C3.73902 10.3405 3.38125 10.3859 3.00125 10.3859C2.74125 10.3859 2.48125 10.3632 2.23236 10.3065C2.75236 12.0167 4.27013 13.2509 6.06902 13.2849C4.6272 14.4741 2.82878 15.1222 0.974579 15.1209C0.649023 15.1209 0.313468 15.1096 -0.000976562 15.0643C1.86217 16.3283 4.05029 17.0018 6.28791 17Z" fill="white"/>
</svg>
