<svg width="24" height="24" viewBox="0 0 24 24" fill="none" xmlns="http://www.w3.org/2000/svg">
    <path fill-rule="evenodd" clip-rule="evenodd" d="M5.25474 3.72368C5.15551 2.53224 6.4904 1.87351 7.40671 2.48563L7.70312 2.68364C12.2227 5.70288 16.4526 9.11021 20.3414 12.8644C21.3101 13.7997 20.4558 15.2756 19.247 15.1462L13.9807 14.5822C13.4445 14.5248 12.9504 14.813 12.7469 15.262L10.6182 19.959C10.1041 21.0934 8.41076 20.988 8.07382 19.7641C6.65905 14.6249 5.72522 9.37274 5.28368 4.07117L5.25474 3.72368ZM6.77173 3.86536L6.77851 3.94668C7.20129 9.02307 8.08349 14.0536 9.41488 18.9804L11.3806 14.6429C11.8611 13.5827 12.9845 12.9669 14.1404 13.0907L18.9474 13.6055C15.2205 10.0471 11.1794 6.80983 6.86989 3.93093L6.77173 3.86536Z" fill="white"/>
    </svg>
    